# xmcd
#
# Track frame offsets: 
#        150
#        29231
#        53066
#
# Disc length: 1136 seconds
#
# Revision: 0
# Processed by: cddbd v1.5.2PL0 Copyright (c) Steve Scherf et al.
# Submitted via: ExactAudioCopy v1.1
#
DISCID=24046e03
DTITLE=Clouds Over Antwerpen - Pale Dead Coming
DYEAR=2015
DGENRE=Melodic Death Metal
TTITLE0=Mantra
TTITLE1=Mothership
TTITLE2=This Night
EXTD=
EXTT0=
EXTT1=
EXTT2=
PLAYORDER=
